<?xml version="1.0" encoding="UTF-8" standalone="no"?>
<!-- Created with Inkscape (http://www.inkscape.org/) -->

<svg
   xmlns:dc="http://purl.org/dc/elements/1.1/"
   xmlns:cc="http://creativecommons.org/ns#"
   xmlns:rdf="http://www.w3.org/1999/02/22-rdf-syntax-ns#"
   xmlns:svg="http://www.w3.org/2000/svg"
   xmlns="http://www.w3.org/2000/svg"
   xmlns:sodipodi="http://sodipodi.sourceforge.net/DTD/sodipodi-0.dtd"
   xmlns:inkscape="http://www.inkscape.org/namespaces/inkscape"
   version="1.1"
   id="svg3680"
   width="954.66669"
   height="834.6864"
   viewBox="0 0 954.66669 834.6864"
   sodipodi:docname="ic-basket.svg"
   inkscape:version="0.92.1 r15371">
  <metadata
     id="metadata3686">
    <rdf:RDF>
      <cc:Work
         rdf:about="">
        <dc:format>image/svg+xml</dc:format>
        <dc:type
           rdf:resource="http://purl.org/dc/dcmitype/StillImage" />
        <dc:title></dc:title>
      </cc:Work>
    </rdf:RDF>
  </metadata>
  <defs
     id="defs3684" />
  <sodipodi:namedview
     pagecolor="#ffffff"
     bordercolor="#666666"
     borderopacity="1"
     objecttolerance="10"
     gridtolerance="10"
     guidetolerance="10"
     inkscape:pageopacity="0"
     inkscape:pageshadow="2"
     inkscape:window-width="1366"
     inkscape:window-height="705"
     id="namedview3682"
     showgrid="false"
     fit-margin-top="0"
     fit-margin-left="0"
     fit-margin-right="0"
     fit-margin-bottom="0"
     inkscape:zoom="0.63844935"
     inkscape:cx="474.66666"
     inkscape:cy="420.244"
     inkscape:window-x="-8"
     inkscape:window-y="-8"
     inkscape:window-maximized="1"
     inkscape:current-layer="svg3680" />
  <path
     style="fill:#000000;stroke-width:1.33333337"
     d="M 0,511.49754 V 188.3197 l 3,-0.80396 c 1.65,-0.44218 62.4858,-0.81217 135.19067,-0.82218 145.79463,-0.0201 133.80932,0.7132 133.80932,-8.18656 0,-2.17266 0.8495,-7.67358 1.88776,-12.22429 1.03828,-4.55072 2.4766,-10.97402 3.19628,-14.27402 3.62536,-16.6235 7.04059,-25.3907 16.10122,-41.33334 16.70336,-29.390366 33.60276,-49.065306 58.28344,-67.855835 23.46124,-17.862124 63.07754,-35.2831895 88.14861,-38.7628945 5.71048,-0.792579 10.58269,-2.0275997 10.82713,-2.7444897 0.58143,-1.70516202 60.22223,-1.77057002 60.22223,-0.06605 0,0.680565 3.45,1.624102 7.66667,2.0967477 8.75358,0.981189 23.1747,4.717942 37.52002,9.7220605 8.46222,2.9519 15.55132,6.310072 39.47998,18.70204 13.02718,6.746405 40.07877,31.142628 50.15102,45.228238 4.59371,6.424105 9.68272,13.309373 11.30892,15.300603 4.66187,5.708314 15.83603,29.70792 20.97344,45.04625 4.07482,12.16584 9.37734,34.99695 10.52867,45.33334 l 0.37128,3.33333 132.22263,0.66667 c 72.72244,0.36666 132.57244,1.01666 133,1.44444 0.42754,0.42778 0.77737,145.40499 0.77737,322.17158 v 321.39381 l -3.66667,1.506 c -2.70125,1.10948 -128.38114,1.50313 -477.33333,1.49509 L 0,834.67538 Z M 893.75393,777.0087 c 2.11809,-1.55952 2.24161,-18.72385 1.9215,-267 l -0.3421,-265.33334 -417.33334,-0.66667 C 248.46666,243.64202 59.61666,243.81313 58.33333,244.38893 56.12244,245.3809 56,259.34354 56,510.4556 c 0,204.34872 0.36628,265.38606 1.6,266.61977 2.39012,2.39012 832.90714,2.32391 836.15393,-0.0667 z M 631.33001,185.34738 c 0.92161,-1.49118 -3.66982,-21.14177 -7.32239,-31.33869 -10.87448,-30.35845 -28.79821,-53.84578 -54.00763,-70.771818 -27.86645,-18.710031 -52.53126,-25.857045 -89.33333,-25.885725 -42.88965,-0.03342 -68.21615,9.370775 -106.82684,39.666787 -6.48929,5.091846 -26.01248,30.098526 -31.55701,40.420456 -5.94804,11.07312 -14.28282,38.18251 -14.28282,46.45581 v 2.78116 h 151.25464 c 98.9908,0 151.53824,-0.45887 152.07538,-1.32798 z"
     id="path3690"
     inkscape:connector-curvature="0" />
</svg>
