<?xml version="1.0" encoding="UTF-8" standalone="no"?>
<!-- Created with Inkscape (http://www.inkscape.org/) -->

<svg
   xmlns:dc="http://purl.org/dc/elements/1.1/"
   xmlns:cc="http://creativecommons.org/ns#"
   xmlns:rdf="http://www.w3.org/1999/02/22-rdf-syntax-ns#"
   xmlns:svg="http://www.w3.org/2000/svg"
   xmlns="http://www.w3.org/2000/svg"
   xmlns:sodipodi="http://sodipodi.sourceforge.net/DTD/sodipodi-0.dtd"
   xmlns:inkscape="http://www.inkscape.org/namespaces/inkscape"
   version="1.1"
   id="svg2"
   width="687"
   height="574.66125"
   viewBox="0 0 687 574.66125"
   sodipodi:docname="icon-basket.svg"
   inkscape:version="0.92.1 r15371">
  <metadata
     id="metadata8">
    <rdf:RDF>
      <cc:Work
         rdf:about="">
        <dc:format>image/svg+xml</dc:format>
        <dc:type
           rdf:resource="http://purl.org/dc/dcmitype/StillImage" />
        <dc:title></dc:title>
      </cc:Work>
    </rdf:RDF>
  </metadata>
  <defs
     id="defs6" />
  <sodipodi:namedview
     pagecolor="#ffffff"
     bordercolor="#666666"
     borderopacity="1"
     objecttolerance="10"
     gridtolerance="10"
     guidetolerance="10"
     inkscape:pageopacity="0"
     inkscape:pageshadow="2"
     inkscape:window-width="845"
     inkscape:window-height="480"
     id="namedview4"
     showgrid="false"
     fit-margin-top="0"
     fit-margin-left="0"
     fit-margin-right="0"
     fit-margin-bottom="0"
     inkscape:zoom="0.32777778"
     inkscape:cx="354.31132"
     inkscape:cy="273.26901"
     inkscape:window-x="274"
     inkscape:window-y="116"
     inkscape:window-maximized="0"
     inkscape:current-layer="svg2" />
  <path
     style="fill:#000000"
     d="M 178.50684,573.87453 C 159.8627,571.18054 144.99257,561.54394 137.09841,547.03977 135.53408,544.16559 121.47509,493.16463 98.639019,407.52292 78.84246,333.28027 62.33881,271.29879 61.96423,269.78629 l -0.68104,-2.75 H 343.5 625.71682 l -0.68105,2.75 c -0.37458,1.5125 -16.87823,63.49398 -36.67479,137.73663 -24.47173,91.77586 -36.85279,136.58723 -38.67736,139.98677 -3.9235,7.31031 -13.51852,16.45641 -21.23651,20.24293 -14.69345,7.20876 -1.28194,6.69954 -181.44711,6.88941 -96.60161,0.10181 -164.62125,-0.20802 -168.49316,-0.7675 z M 353.5,524.37373 c 4.47692,-1.8404 9.58031,-6.73689 12.33763,-11.83744 l 2.16237,-4 v -87.5 -87.5 l -2.16237,-4 c -4.77195,-8.82725 -12.71689,-13.7 -22.33763,-13.7 -9.62074,0 -17.56568,4.87275 -22.33763,13.7 l -2.16237,4 v 87.5 87.5 l 2.17758,4.06821 c 3.86647,7.22344 9.97093,11.68991 18.82242,13.77189 2.82422,0.66429 9.37712,-0.3078 13.5,-2.00266 z m -117.42905,-20.8756 c 3.01563,-1.86442 6.03094,-4.8825 7.90261,-7.90986 L 247,490.69313 v -69.65684 -69.65684 l -3.02644,-4.89514 c -1.87587,-3.03415 -4.88743,-6.04571 -7.92158,-7.92158 -4.40134,-2.72115 -5.71797,-3.02644 -13.05198,-3.02644 -7.33401,0 -8.65064,0.30529 -13.05198,3.02644 -3.0335,1.87546 -6.04612,4.88781 -7.92158,7.92088 L 199,351.37806 l -0.30073,67.57911 c -0.19943,44.81498 0.0504,68.78796 0.7418,71.16776 1.71189,5.89276 6.40684,11.40411 12.21735,14.3418 4.60015,2.32576 6.32672,2.65519 12.43897,2.37336 5.80339,-0.26759 7.98641,-0.87689 11.97356,-3.34196 z m 241,0 c 3.01563,-1.86442 6.03094,-4.8825 7.90261,-7.90986 L 488,490.69313 v -69.65684 -69.65684 l -3.02644,-4.89514 c -1.87587,-3.03415 -4.88743,-6.04571 -7.92158,-7.92158 -4.40134,-2.72115 -5.71797,-3.02644 -13.05198,-3.02644 -7.33401,0 -8.65064,0.30529 -13.05198,3.02644 -3.0335,1.87546 -6.04612,4.88781 -7.92158,7.92088 L 440,351.37806 l -0.30073,67.57911 c -0.19943,44.81498 0.0505,68.78796 0.7418,71.16776 1.71189,5.89276 6.40684,11.40411 12.21735,14.3418 4.60015,2.32576 6.32672,2.65519 12.43897,2.37336 5.80339,-0.26759 7.98641,-0.87689 11.97356,-3.34196 z M 9.50945,247.18102 C 7.60681,246.16063 4.68884,243.64386 3.02506,241.5882 L 0,237.85065 v -26.73502 -26.73502 l 2.88391,-3.78101 c 5.89603,-7.73009 3.9591,-7.51664 68.43348,-7.54135 54.13671,-0.0207 57.28684,0.0751 56.76689,1.72804 -6.25663,19.88937 1.91269,39.46175 20.23601,48.4823 6.08716,2.99669 7.42729,3.2677 16.15868,3.2677 8.62125,0 10.15428,-0.29999 16.22174,-3.1744 8.07854,-3.82712 14.5369,-10.02842 18.10052,-17.38007 1.45182,-2.99504 4.294,-11.63303 6.31596,-19.19553 l 3.67631,-13.75 h 135.3147 135.31471 l 1.12774,4.25 c 7.69995,29.01796 8.57139,31.10512 16.09867,38.55722 2.39288,2.36897 7.26622,5.74397 10.82965,7.5 5.91154,2.91315 7.31284,3.19278 16,3.19278 8.62826,0 10.1516,-0.29871 16.2458,-3.18565 15.55465,-7.36854 24.75912,-24.34481 22.00831,-40.59102 -0.57956,-3.42283 -1.36724,-7.01083 -1.7504,-7.97333 -0.65863,-1.65447 2.40712,-1.7488 56.16033,-1.72804 63.95755,0.0247 62.08106,-0.18348 67.97308,7.54135 L 687,184.38061 v 26.73502 26.73502 l -3.02505,3.73755 c -1.66378,2.05566 -4.58176,4.57243 -6.4844,5.59282 -3.3494,1.79631 -13.96426,1.85527 -333.99055,1.85527 -320.02629,0 -330.64115,-0.059 -333.99055,-1.85527 z M 159.49353,208.10195 C 148.98755,204.90618 142.5,196.59626 142.5,186.33492 142.5,181.88847 184.78931,21.128885 187.97881,13.450695 191.33283,5.3764583 202.89875,-0.9550997 211.71793,0.4551423 223.26424,2.3014723 231.5,11.810509 231.5,23.295585 c 0,3.90085 -43.0498,165.960275 -45.70941,172.071455 -4.13449,9.5001 -16.7875,15.62759 -26.29706,12.73491 z m 353.42875,-1.48409 c -4.67672,-2.03641 -9.88377,-7.04573 -11.72765,-11.28231 -0.90944,-2.08959 -11.56278,-40.84129 -23.67408,-86.11488 C 462.12972,51.687777 455.5,25.330855 455.5,21.676425 c 0,-7.738561 4.65891,-15.0892257 12,-18.9331787 10.53836,-5.518112 23.14565,-2.488396 29.4808,7.084665 3.18024,4.8056577 47.51477,169.3029387 47.49086,176.2083787 -0.029,8.36536 -6.06154,17.05923 -14.18954,20.44932 -4.52469,1.88719 -13.17813,1.95311 -17.35984,0.13225 z"
     id="path14701"
     inkscape:connector-curvature="0" />
</svg>
