<?xml version="1.0" encoding="UTF-8" standalone="no"?>
<!-- Created with Inkscape (http://www.inkscape.org/) -->

<svg
   xmlns:dc="http://purl.org/dc/elements/1.1/"
   xmlns:cc="http://creativecommons.org/ns#"
   xmlns:rdf="http://www.w3.org/1999/02/22-rdf-syntax-ns#"
   xmlns:svg="http://www.w3.org/2000/svg"
   xmlns="http://www.w3.org/2000/svg"
   xmlns:sodipodi="http://sodipodi.sourceforge.net/DTD/sodipodi-0.dtd"
   xmlns:inkscape="http://www.inkscape.org/namespaces/inkscape"
   version="1.1"
   id="svg25472"
   width="299.90836"
   height="299.78012"
   viewBox="0 0 299.90836 299.78012"
   sodipodi:docname="icon-insta.svg"
   inkscape:version="0.92.1 r15371">
  <metadata
     id="metadata25478">
    <rdf:RDF>
      <cc:Work
         rdf:about="">
        <dc:format>image/svg+xml</dc:format>
        <dc:type
           rdf:resource="http://purl.org/dc/dcmitype/StillImage" />
        <dc:title></dc:title>
      </cc:Work>
    </rdf:RDF>
  </metadata>
  <defs
     id="defs25476" />
  <sodipodi:namedview
     pagecolor="#ffffff"
     bordercolor="#666666"
     borderopacity="1"
     objecttolerance="10"
     gridtolerance="10"
     guidetolerance="10"
     inkscape:pageopacity="0"
     inkscape:pageshadow="2"
     inkscape:window-width="845"
     inkscape:window-height="480"
     id="namedview25474"
     showgrid="false"
     fit-margin-top="0"
     fit-margin-left="0"
     fit-margin-right="0"
     fit-margin-bottom="0"
     inkscape:zoom="0.78666667"
     inkscape:cx="200.64965"
     inkscape:cy="151.09734"
     inkscape:window-x="0"
     inkscape:window-y="0"
     inkscape:window-maximized="0"
     inkscape:current-layer="svg25472" />
  <path
     style="fill:#020202"
     d="m 84.255685,298.86095 c -25.5438,-1.84174 -43.11444,-8.87892 -58.10127,-23.27002 C 10.305285,260.37182 3.076705,242.52385 0.97924499,213.43131 -0.326415,195.32135 -0.326415,104.58661 0.97924499,86.476646 3.016215,58.223233 9.4219047,41.666124 24.317025,26.154412 39.536135,10.305282 57.384095,3.0767093 86.476645,0.97924513 c 18.109965,-1.30566018 108.844705,-1.30566018 126.954665,0 29.09254,2.09746417 46.94051,9.32603687 62.15962,25.17516687 14.87915,15.495088 21.30561,32.139298 23.34843,60.47129 1.29198,17.918448 1.29198,108.738108 0,126.656548 -2.10329,29.17057 -9.35245,47.1047 -25.18582,62.30868 -15.51171,14.89511 -32.06882,21.30081 -60.32223,23.33778 -16.24329,1.17108 -112.6954,1.12049 -129.175625,-0.0678 z M 224.26086,270.57714 c 27.12968,-5.09281 41.27114,-19.36134 46.42178,-46.83895 1.5398,-8.21453 1.74031,-16.7156 1.74031,-73.78421 0,-57.068617 -0.20051,-65.569691 -1.74031,-73.784218 -5.18598,-27.666099 -19.27835,-41.758474 -46.94445,-46.944448 -8.21453,-1.539803 -16.7156,-1.740313 -73.78421,-1.740313 -57.068615,0 -65.569695,0.20051 -73.784215,1.740313 -27.48164,5.151397 -41.77508,19.320959 -46.82763,46.421781 -1.34231,7.199873 -1.72937,18.386634 -2.1212,61.306885 -0.49917,54.67884 0.42574,81.12767 3.24911,92.9118 4.96934,20.74097 19.11506,34.74027 40.08438,39.66948 11.39301,2.67813 27.12477,3.20835 87.399555,2.94568 48.507,-0.21138 58.8774,-0.50913 66.30688,-1.9038 z m -88.23169,-44.64696 c -23.56799,-4.96196 -43.476725,-19.67813 -53.950245,-39.87904 -6.86684,-13.24449 -8.62495,-20.60253 -8.62495,-36.09716 0,-11.35817 0.37173,-14.6899 2.34303,-21 8.25123,-26.412 26.744975,-44.905745 53.156975,-53.156973 10.85637,-3.391578 31.14363,-3.391578 42,0 26.412,8.251228 44.90574,26.744973 53.15697,53.156973 1.9713,6.3101 2.34303,9.64183 2.34303,21 0,11.35817 -0.37173,14.6899 -2.34303,21 -8.18829,26.21053 -26.67109,44.81608 -52.65697,53.00672 -7.90335,2.4911 -27.71552,3.59258 -35.42481,1.96948 z m 25.46471,-27.50786 c 9.48589,-2.43774 16.45251,-6.43009 23.47543,-13.45301 19.93657,-19.93657 19.93657,-50.09409 0,-70.03066 -19.91442,-19.914428 -50.32332,-19.939472 -70.03066,-0.0577 -19.936825,20.1133 -19.936825,50.15151 0,70.08833 12.69355,12.69355 30.02362,17.7014 46.55523,13.45301 z M 221.92394,85.703973 C 209.0231,79.18667 208.77687,61.55969 221.48355,54.177837 c 5.77228,-3.353362 13.99922,-2.749382 19.20508,1.409938 7.10244,5.674639 9.25411,14.549251 5.37176,22.156036 -2.33893,4.582737 -4.61059,6.687222 -9.36089,8.672024 -5.11406,2.136789 -9.5608,1.922552 -14.77556,-0.711862 z"
     id="path36239"
     inkscape:connector-curvature="0" />
</svg>
