<?xml version="1.0" encoding="UTF-8" standalone="no"?>
<!-- Created with Inkscape (http://www.inkscape.org/) -->

<svg
   xmlns:dc="http://purl.org/dc/elements/1.1/"
   xmlns:cc="http://creativecommons.org/ns#"
   xmlns:rdf="http://www.w3.org/1999/02/22-rdf-syntax-ns#"
   xmlns:svg="http://www.w3.org/2000/svg"
   xmlns="http://www.w3.org/2000/svg"
   xmlns:sodipodi="http://sodipodi.sourceforge.net/DTD/sodipodi-0.dtd"
   xmlns:inkscape="http://www.inkscape.org/namespaces/inkscape"
   version="1.1"
   id="svg14703"
   width="481.01379"
   height="481.11288"
   viewBox="0 0 481.01379 481.11288"
   sodipodi:docname="icon-vk.svg"
   inkscape:version="0.92.1 r15371">
  <metadata
     id="metadata14709">
    <rdf:RDF>
      <cc:Work
         rdf:about="">
        <dc:format>image/svg+xml</dc:format>
        <dc:type
           rdf:resource="http://purl.org/dc/dcmitype/StillImage" />
        <dc:title></dc:title>
      </cc:Work>
    </rdf:RDF>
  </metadata>
  <defs
     id="defs14707" />
  <sodipodi:namedview
     pagecolor="#ffffff"
     bordercolor="#666666"
     borderopacity="1"
     objecttolerance="10"
     gridtolerance="10"
     guidetolerance="10"
     inkscape:pageopacity="0"
     inkscape:pageshadow="2"
     inkscape:window-width="845"
     inkscape:window-height="480"
     id="namedview14705"
     showgrid="false"
     fit-margin-top="0"
     fit-margin-left="0"
     fit-margin-right="0"
     fit-margin-bottom="0"
     inkscape:zoom="0.33714286"
     inkscape:cx="468.13781"
     inkscape:cy="231.70767"
     inkscape:window-x="333"
     inkscape:window-y="117"
     inkscape:window-maximized="0"
     inkscape:current-layer="svg14703" />
  <path
     style="fill:#000000"
     d="M 79.139958,480.42694 C 47.546048,477.02896 18.831508,455.35571 6.7889476,425.81759 -0.47854239,407.99185 0.00689761,421.25575 0.00689761,240.50691 c 0,-180.829322 -0.49125,-167.470692 6.81777999,-185.398332 C 15.411788,34.046028 34.079858,15.397998 55.196218,6.7889476 73.021958,-0.47854239 59.758058,0.00689761 240.5069,0.00689761 c 180.8293,0 167.4707,-0.49125 185.3983,6.81777999 21.0626,8.5871104 39.7106,27.2551804 48.3196,48.3715504 7.2675,17.82574 6.7821,4.56184 6.7821,185.310682 0,180.82932 0.4912,167.47069 -6.8178,185.39833 -8.5857,21.05922 -27.2554,39.71068 -48.3636,48.3164 -17.6003,7.17557 -4.4433,6.67411 -180.3186,6.87256 -87.175,0.0984 -162.040122,-0.20191 -166.366942,-0.66726 z M 400.7077,436.4052 c 17.4699,-3.63199 32.0655,-18.22763 35.6975,-35.69751 1.5536,-7.47291 1.5536,-312.928652 0,-320.401562 -3.632,-17.46988 -18.2276,-32.06553 -35.6975,-35.69752 -7.4729,-1.55362 -312.928672,-1.55362 -320.401582,0 -17.46988,3.63199 -32.06552,18.22764 -35.69751,35.69752 -1.55362,7.47291 -1.55362,312.928652 0,320.401562 3.53487,17.00272 17.35361,31.28282 34.23366,35.3766 6.99692,1.6969 313.775632,2.00277 321.865432,0.32091 z M 227.0069,327.47224 c -10.2432,-1.27815 -23.33,-5.35763 -33.382,-10.40607 -25.78369,-12.94934 -46.97677,-36.85188 -73.17343,-82.52834 -11.49192,-20.03729 -29.944572,-58.0894 -29.944572,-61.75015 0,-1.74871 0.86509,-3.75445 2.10296,-4.87578 1.92882,-1.74724 4.14394,-1.92838 26.750002,-2.18744 28.63378,-0.32813 30.03436,-0.006 33.85376,7.78245 1.2137,2.475 5.11143,10.575 8.66162,18 3.55019,7.425 9.35624,18.12381 12.90234,23.77514 14.92199,23.78082 23.15072,30.58977 28.59842,23.6641 3.4672,-4.40785 4.6361,-12.59219 4.5615,-31.93924 -0.1017,-26.34428 -2.5915,-32.6785 -14.0498,-35.74311 -2.40942,-0.64444 -4.3808,-1.57337 -4.3808,-2.06429 0,-1.96632 6.8324,-7.55531 10.5469,-8.62749 7.1401,-2.06095 27.7021,-3.14578 40.7031,-2.14746 14.3378,1.10096 19.2802,2.53115 22.1545,6.41085 2.0233,2.73109 2.0968,3.93638 2.1325,35 0.034,29.17895 0.2085,32.52354 1.8804,35.95608 2.4075,4.94294 4.8587,6.25792 8.6995,4.66701 8.4963,-3.51931 26.4788,-30.46778 38.337,-57.45159 3.1421,-7.15 6.5434,-13.85558 7.5586,-14.90129 1.7112,-1.76281 3.9812,-1.93202 31.1666,-2.32324 26.9176,-0.38737 29.6078,-0.27251 32.8209,1.40129 5.2391,2.72918 5.2613,7.37247 0.086,18.04448 -5.0058,10.32318 -11.102,19.423 -26.9486,40.22644 -13.2674,17.41748 -18.09,25.09659 -18.1196,28.85198 -0.033,4.19071 2.6621,7.61056 17.5126,22.22168 26.0473,25.62749 35.1681,39.54841 30.1875,46.07498 -0.67,0.87798 -2.7932,2.45298 -4.7182,3.5 -3.1957,1.73815 -5.8478,1.90368 -30.5,1.90368 h -27 l -5.415,-2.85044 c -5.3718,-2.82773 -10.7168,-7.81482 -27.085,-25.27122 -9.803,-10.45471 -13.8183,-12.55793 -18.929,-9.91508 -5.0053,2.58839 -9.071,13.31688 -9.071,23.93674 0,6.35099 -1.7662,10.41944 -5.3584,12.34316 -3.6889,1.97548 -21.7629,2.642 -33.1416,1.22217 z"
     id="path25470"
     inkscape:connector-curvature="0" />
</svg>
