<?xml version="1.0" encoding="UTF-8" standalone="no"?>
<!-- Created with Inkscape (http://www.inkscape.org/) -->

<svg
   xmlns:dc="http://purl.org/dc/elements/1.1/"
   xmlns:cc="http://creativecommons.org/ns#"
   xmlns:rdf="http://www.w3.org/1999/02/22-rdf-syntax-ns#"
   xmlns:svg="http://www.w3.org/2000/svg"
   xmlns="http://www.w3.org/2000/svg"
   xmlns:sodipodi="http://sodipodi.sourceforge.net/DTD/sodipodi-0.dtd"
   xmlns:inkscape="http://www.inkscape.org/namespaces/inkscape"
   version="1.1"
   id="svg36241"
   width="626.24255"
   height="626.18542"
   viewBox="0 0 626.24255 626.18542"
   sodipodi:docname="icon-fb.svg"
   inkscape:version="0.92.1 r15371">
  <metadata
     id="metadata36247">
    <rdf:RDF>
      <cc:Work
         rdf:about="">
        <dc:format>image/svg+xml</dc:format>
        <dc:type
           rdf:resource="http://purl.org/dc/dcmitype/StillImage" />
        <dc:title></dc:title>
      </cc:Work>
    </rdf:RDF>
  </metadata>
  <defs
     id="defs36245" />
  <sodipodi:namedview
     pagecolor="#ffffff"
     bordercolor="#666666"
     borderopacity="1"
     objecttolerance="10"
     gridtolerance="10"
     guidetolerance="10"
     inkscape:pageopacity="0"
     inkscape:pageshadow="2"
     inkscape:window-width="845"
     inkscape:window-height="480"
     id="namedview36243"
     showgrid="false"
     fit-margin-top="0"
     fit-margin-left="0"
     fit-margin-right="0"
     fit-margin-bottom="0"
     inkscape:zoom="0.37699681"
     inkscape:cx="513.47568"
     inkscape:cy="312.99999"
     inkscape:window-x="0"
     inkscape:window-y="0"
     inkscape:window-maximized="0"
     inkscape:current-layer="svg36241" />
  <path
     style="fill:#000000"
     d="M 89.688939,625.02453 C 45.226209,616.6902 10.224149,581.77388 1.6341588,537.18544 -0.57561117,525.71506 -0.52952117,100.44182 1.6827588,88.880701 4.9038488,72.047566 11.134799,57.941314 21.460149,44.106662 38.119249,21.785578 61.963999,6.7674194 88.939329,1.6061854 c 11.434881,-2.18785305 437.101341,-2.11850705 448.554341,0.07307 44.634,8.5409056 79.5593,43.9882846 87.6299,88.9398406 1.492,8.30984 1.492,436.822844 0,445.132674 -8.1552,45.42294 -43.9454,81.21305 -89.3683,89.36833 -3.7602,0.67511 -27.6605,1.06533 -65.25,1.06533 h -59.3163 v -117.991 -117.991 l 51.75,-0.259 51.75,-0.259 0.2589,-52.25 0.2589,-52.25 h -52.0695 -52.0694 l 0.3105,-26.34051 0.3106,-26.34052 3.6562,-5.88664 c 2.5589,-4.12003 4.9598,-6.58488 8,-8.21328 4.3367,-2.32286 4.4139,-2.32696 47.511,-2.52285 23.7421,-0.10791 43.4296,-0.4587 43.75,-0.77953 0.3205,-0.32084 0.5828,-23.86689 0.5828,-52.32456 v -51.74122 l -49.25,0.3845 -49.25,0.38449 -11,2.94647 c -11.9078,3.18962 -25.9558,9.87377 -36.6402,17.43365 -15.63692,11.06413 -33.72223,33.1868 -41.70952,51.02082 -1.84233,4.11355 -4.01891,8.97955 -4.83685,10.81334 -2.67,5.98602 -7.61005,27.45016 -8.55386,37.16584 -0.50757,5.225 -0.88612,19.50715 -0.84123,31.73812 l 0.0816,22.23811 -38.25,0.26189 -38.25,0.26188 v 52 52 l 38.25,0.26188 38.25,0.26189 v 117.98811 117.98812 l -109.25,-0.11184 c -63.20192,-0.0647 -111.357461,-0.50688 -114.250001,-1.04907 z"
     id="path47008"
     inkscape:connector-curvature="0" />
</svg>
