<?xml version="1.0" encoding="UTF-8" standalone="no"?>
<!-- Created with Inkscape (http://www.inkscape.org/) -->

<svg
   xmlns:dc="http://purl.org/dc/elements/1.1/"
   xmlns:cc="http://creativecommons.org/ns#"
   xmlns:rdf="http://www.w3.org/1999/02/22-rdf-syntax-ns#"
   xmlns:svg="http://www.w3.org/2000/svg"
   xmlns="http://www.w3.org/2000/svg"
   xmlns:sodipodi="http://sodipodi.sourceforge.net/DTD/sodipodi-0.dtd"
   xmlns:inkscape="http://www.inkscape.org/namespaces/inkscape"
   version="1.1"
   id="svg47010"
   width="296.09592"
   height="299.28784"
   viewBox="0 0 296.09592 299.28784"
   sodipodi:docname="icon-wa.svg"
   inkscape:version="0.92.1 r15371">
  <metadata
     id="metadata47016">
    <rdf:RDF>
      <cc:Work
         rdf:about="">
        <dc:format>image/svg+xml</dc:format>
        <dc:type
           rdf:resource="http://purl.org/dc/dcmitype/StillImage" />
        <dc:title></dc:title>
      </cc:Work>
    </rdf:RDF>
  </metadata>
  <defs
     id="defs47014" />
  <sodipodi:namedview
     pagecolor="#ffffff"
     bordercolor="#666666"
     borderopacity="1"
     objecttolerance="10"
     gridtolerance="10"
     guidetolerance="10"
     inkscape:pageopacity="0"
     inkscape:pageshadow="2"
     inkscape:window-width="845"
     inkscape:window-height="480"
     id="namedview47012"
     showgrid="false"
     fit-margin-top="0"
     fit-margin-left="0"
     fit-margin-right="0"
     fit-margin-bottom="0"
     inkscape:zoom="0.78666667"
     inkscape:cx="222.32677"
     inkscape:cy="150.85486"
     inkscape:window-x="191"
     inkscape:window-y="19"
     inkscape:window-maximized="0"
     inkscape:current-layer="svg47010" />
  <path
     style="fill:#000000"
     d="m 11.819278,260.88713 13.21386,-38.93414 -5.2519,-10.56539 c -5.80695,-11.68202 -10.0422897,-23.76911 -12.85393,-36.68342 -2.62581,-12.06074 -2.66329,-44.8151 -0.0652,-57 6.30076,-29.550431 19.29195,-53.666958 40.15359,-74.540151 C 78.382038,11.780324 120.6749,-3.567898 164.0233,0.70157081 228.70186,7.0718882 280.0479,53.121119 293.71652,117.01577 c 3.18758,14.90049 3.16969,42.77709 -0.037,57.68841 -6.41862,29.84683 -18.87294,52.86798 -40.06736,74.0624 -17.13163,17.13163 -34.88643,28.28278 -56.41108,35.42977 -15.82504,5.25451 -23.61832,6.58318 -42.15132,7.18638 -14.4,0.46868 -18.83529,0.23664 -29,-1.5172 -13.88633,-2.39597 -27.781342,-6.79487 -38.594742,-12.21837 l -7.59476,-3.80918 -38.90526,12.4432 c -21.3979,6.84376 -39.68023,12.69 -40.62741,12.99165 -1.33864,0.42631 1.22039,-8.12161 11.49171,-38.3857 z m 161.544182,4.30489 c 24.86235,-4.75217 46.82902,-16.91789 64.93274,-35.96146 22.29928,-23.45694 33.25352,-50.80715 33.25352,-83.02638 0,-33.77186 -12.07039,-62.818292 -35.96299,-86.542072 -23.0248,-22.862104 -52.627,-34.941967 -85.65602,-34.953913 -33.20843,-0.01201 -64.294712,13.436406 -87.709702,37.944606 -15.77915,16.515849 -26.26464,36.665157 -31.2501,60.051379 -2.22346,10.42998 -2.49523,33.08037 -0.52794,44 2.70041,14.9888 10.46721,34.3598 18.42409,45.95112 l 3.05548,4.45112 -7.46967,22.29888 c -4.10832,12.26438 -7.07002,22.29888 -6.58155,22.29888 0.48847,0 10.74685,-3.1772 22.7964,-7.06044 l 21.90828,-7.06044 13.23686,6.553 c 13.875462,6.86914 26.557322,10.85494 39.835742,12.52001 9.68017,1.21386 27.27791,0.53062 37.71486,-1.46429 z m 9.61217,-47.02181 c -7.76342,-1.62149 -27.77833,-9.42353 -37.24479,-14.51844 -10.43058,-5.6138 -20.46845,-13.46069 -30.22701,-23.62931 -14.20104,-14.79778 -28.521342,-35.70157 -34.235542,-49.9747 -2.84777,-7.11326 -3.14188,-8.8678 -3.15867,-18.84358 -0.0242,-14.362961 2.07117,-19.981312 10.94516,-29.347936 l 6.27886,-6.627429 8.050242,-0.365581 c 7.37776,-0.335042 8.24601,-0.169003 10.39397,1.98768 3.01259,3.024819 15.13834,35.257006 14.38815,38.246006 -0.29852,1.1894 -3.46021,5.67169 -7.02597,9.96066 -7.47923,8.99615 -7.48103,8.32092 0.0532,19.98546 5.90176,9.13712 18.98596,22.59013 27.35648,28.12757 8.22421,5.44065 18.3461,10.53357 20.93488,10.53357 1.25697,0 4.803,-3.22843 9.61078,-8.75 4.19037,-4.8125 8.52003,-9.17331 9.62146,-9.69068 1.59503,-0.74923 4.88552,0.5531 16.16774,6.39901 7.79083,4.03683 15.9097,8.4393 18.04194,9.78327 3.87495,2.44241 3.8765,2.44608 3.25906,7.69959 -1.71363,14.58027 -9.87924,23.81409 -24.64854,27.87298 -8.40888,2.31092 -11.95764,2.53115 -18.56141,1.15186 z"
     id="path57777"
     inkscape:connector-curvature="0" />
</svg>
